<?xml version="1.0"?><svg width="999" height="999" xmlns="http://www.w3.org/2000/svg">

 <g>
  <title>Layer 1</title>
  <path id="svg_1" fill="#000000" d="m995,995l0,-992l-992,0l0,992l992,0z"/>
  <path id="svg_2" fill="#fff" d="m661,146l9,1l9,1l8,1l7,1l6,1l6,1l5,1l5,1l5,2l4,1l3,1l4,1l3,2l2,1l3,2l2,1l2,2l3,1l4,3l6,4l6,3l5,1l5,1l6,-2l5,-2l4,-4l2,-5l2,-5l0,-5l-1,-6l-3,-4l-3,-4l-5,-3l-3,-2l-4,-2l-4,-3l-2,-2l-3,-1l-3,-2l-3,-2l-3,-1l-3,-2l-4,-2l-3,-1l-4,-2l-4,-1l-4,-2l-4,-1l-5,-1l-5,-1l-6,-2l-5,-1l-7,-1l-6,-1l-8,0l-7,-1l-8,-1l-8,0l-6,0l-5,2l-4,3l-4,4l-2,5l-1,5l0,6l2,5l3,4l4,4l5,2l5,1z"/>
  <path id="svg_3" fill="#fff" d="m382,101l-8,0l-8,1l-7,1l-7,1l-7,1l-6,0l-6,1l-5,2l-5,1l-5,1l-4,1l-5,2l-4,1l-4,2l-3,1l-4,2l-3,2l-3,1l-3,2l-3,2l-2,2l-3,2l-4,2l-3,2l-4,2l-4,3l-4,4l-3,4l-1,6l0,5l2,5l3,5l4,4l4,2l6,2l5,-1l6,-1l5,-3l6,-4l5,-3l2,-1l2,-2l3,-1l2,-2l3,-1l3,-1l3,-2l4,-1l4,-1l4,-2l5,-1l5,-1l6,-1l7,-1l7,-1l8,-1l8,-1l9,-1l6,-1l4,-2l4,-4l3,-4l2,-5l1,-6l-2,-5l-2,-5l-4,-4l-4,-3l-5,-2l-6,0z"/>
  <path id="svg_4" fill="#fff" d="m711,212l-5,3l-4,3l-4,3l-4,2l-4,1l-4,2l-3,1l-4,1l-4,0l-5,1l-5,0l-5,0l-5,0l-7,0l-7,0l-7,-1l-4,0l-3,0l-4,0l-3,0l-4,0l-4,-1l-5,0l-4,0l-4,0l-5,0l-4,0l-5,0l-5,0l-5,0l-6,0l-5,0l-6,0l-6,0l-6,0l-6,0l-6,1l-7,0l-7,0l-7,0l-7,1l-7,0l-6,0l-7,0l-6,0l-7,0l-6,0l-6,0l-6,0l-6,0l-6,-1l-6,0l-6,0l-5,-1l-6,0l-5,-1l-5,0l-5,-1l-5,-1l-5,0l-5,-1l-5,-1l-4,0l-5,-1l-4,-1l-4,-1l-4,-1l-5,-1l-4,-1l-4,0l-4,-1l-3,-1l-4,-1l-3,-1l-4,-1l-3,-1l-3,-1l-3,-1l-3,-1l-3,-1l-3,-1l-3,-1l-2,-1l-6,-1l-5,0l-6,1l-4,3l-4,4l-2,5l-2,5l1,6l1,5l3,5l4,3l5,3l2,1l3,1l3,1l3,1l3,1l3,1l3,1l3,1l4,1l3,1l4,1l3,1l4,1l4,1l3,1l4,1l5,1l4,0l4,1l4,1l4,1l5,0l5,1l4,1l5,1l5,0l5,1l5,1l5,0l5,1l6,0l5,1l5,0l6,1l6,0l6,0l5,0l6,1l6,0l7,0l6,0l6,0l6,0l7,0l6,-1l7,0l7,0l7,0l7,-1l7,0l6,0l7,0l5,0l6,-1l6,0l6,0l5,0l5,0l5,0l5,1l5,0l4,0l4,0l4,0l5,0l4,0l3,0l4,1l4,0l3,0l6,0l6,0l5,1l6,0l4,0l5,0l5,0l4,-1l5,0l4,-1l4,0l5,-1l4,-1l4,-2l4,-1l4,-2l5,-1l4,-3l4,-2l5,-3l5,-3l5,-4l4,-4l3,-4l1,-5l0,-5l-1,-6l-2,-5l-4,-4l-5,-3l-5,-1l-5,0l-5,1l-5,2z"/>
  <path id="svg_5" fill="#fff" d="m717,280l-3,1l-3,1l-2,1l-3,1l-3,1l-2,1l-3,1l-2,1l-3,1l-2,0l-3,1l-2,0l-3,1l-2,1l-3,0l-3,1l-3,0l-4,1l-3,0l-4,1l-3,0l-4,0l-4,1l-5,0l-5,0l-4,1l-6,0l-5,0l-6,0l-6,0l-7,1l-6,0l-8,0l-7,0l-8,0l-9,0l-9,0l-9,0l-10,0l-10,0l-11,0l-5,0l-6,0l-6,0l-6,0l-5,0l-6,0l-6,-1l-6,0l-5,0l-6,0l-5,-1l-6,0l-5,0l-5,-1l-6,0l-5,-1l-5,0l-5,-1l-5,0l-5,-1l-6,-1l-5,0l-5,-1l-4,-1l-5,0l-5,-1l-4,-1l-5,0l-4,-1l-5,-1l-4,-1l-5,-1l-4,-1l-4,-1l-4,-1l-4,-1l-4,-1l-4,-1l-4,-1l-4,-1l-3,-1l-4,-1l-3,-2l-4,-1l-3,-1l-6,-1l-5,0l-5,1l-5,3l-3,4l-3,5l-1,6l0,5l1,5l3,5l4,3l5,3l3,1l4,2l4,1l3,1l4,1l4,1l4,1l3,1l4,1l4,2l5,1l4,1l4,1l4,1l4,0l5,1l4,1l5,1l5,1l4,1l5,1l5,0l5,1l4,1l5,0l5,1l5,1l5,0l5,1l6,0l5,1l5,0l5,1l6,0l5,1l5,0l6,0l5,1l6,0l5,0l6,0l6,1l5,0l6,0l6,0l6,0l5,0l6,0l10,0l10,0l9,0l9,0l8,0l9,0l7,0l8,0l7,0l6,0l7,-1l6,0l6,0l6,0l5,0l5,0l5,-1l5,0l4,0l5,-1l4,0l3,0l4,-1l4,0l4,-1l3,0l3,-1l3,0l3,-1l4,-1l2,0l3,-1l3,-1l3,-1l3,0l3,-1l2,-1l3,-1l3,-1l3,-1l3,-1l3,-2l3,-1l4,-1l4,-3l4,-3l3,-5l2,-5l0,-5l-1,-6l-3,-5l-4,-4l-4,-2l-5,-2l-6,0l-5,1z"/>
  <path id="svg_6" fill="#fff" d="m774,821l-2,2l-1,2l-2,3l-2,1l-2,2l-2,2l-2,2l-2,2l-2,1l-3,2l-3,1l-3,2l-3,1l-3,1l-3,2l-4,1l-3,2l-4,1l-4,1l-4,1l-4,1l-4,2l-4,1l-4,1l-4,1l-5,1l-5,1l-4,1l-5,0l-5,1l-5,1l-5,1l-5,1l-5,0l-5,1l-5,1l-6,0l-5,1l-6,0l-5,1l-6,1l-6,0l-6,1l-5,0l-6,1l-6,0l-6,1l-6,0l-6,0l-6,1l-6,0l-6,1l-6,0l-6,0l-6,1l-6,0l-6,0l-7,0l-5,1l-6,0l-6,0l-5,0l-6,0l-5,0l-6,-1l-5,0l-5,0l-6,-1l-5,0l-6,-1l-5,-1l-6,0l-5,-1l-5,-1l-5,-1l-5,-1l-6,-1l-5,-1l-5,-1l-5,-1l-5,-1l-5,-1l-5,-1l-5,-1l-5,-1l-4,-2l-5,-1l-4,-1l-5,-2l-5,-1l-4,-1l-5,-2l-4,-1l-4,-2l-4,-1l-5,-2l-4,-1l-4,-1l-4,-2l-4,-1l-3,-1l-4,-2l-4,-1l-4,-2l-3,-1l-3,-1l-4,-2l-3,-1l-4,-1l-3,-1l-3,-2l-3,-1l-3,-1l-6,-3l-7,-2l-6,-3l-5,-1l-5,0l-5,2l-5,3l-4,4l-3,5l-1,5l0,6l2,4l3,5l4,4l5,3l5,2l6,2l7,3l3,1l3,1l3,1l3,2l3,1l3,1l4,1l3,2l4,1l4,1l3,2l4,1l3,2l4,1l4,1l5,2l4,1l4,2l4,1l4,2l4,1l5,1l4,2l5,1l4,1l5,2l5,1l4,1l5,2l5,1l5,1l5,1l5,1l5,2l5,1l5,1l5,1l5,1l6,1l5,1l5,1l5,0l6,1l5,1l6,1l5,0l6,1l5,0l6,1l6,0l5,0l6,1l6,0l5,0l6,0l6,0l5,0l6,-1l7,0l7,0l7,-1l7,0l7,0l7,-1l6,0l7,-1l6,0l7,-1l6,0l7,-1l5,0l7,-1l6,0l6,-1l6,0l5,-1l6,-1l5,0l6,-1l5,-1l5,0l6,-1l5,-1l5,-1l5,-1l5,0l4,-1l5,-1l5,-1l5,-1l4,-1l4,-1l4,-1l5,-1l4,-1l4,-2l4,-1l4,-1l3,-1l4,-1l4,-2l3,-1l4,-1l3,-2l3,-1l3,-2l3,-2l3,-1l3,-2l3,-2l3,-1l3,-2l2,-2l2,-2l3,-1l2,-2l2,-2l2,-3l2,-2l2,-2l2,-2l2,-2l2,-3l1,-2l2,-2l2,-5l1,-6l-1,-5l-2,-5l-3,-5l-5,-3l-5,-2l-6,-1l-5,1l-5,2l-4,3l-3,4z"/>
  <path id="svg_7" fill="#fff" d="m238,364l0,401l0,6l2,5l4,4l4,4l5,2l6,0l5,0l5,-2l4,-4l4,-4l2,-5l0,-6l0,-401l0,-6l-2,-5l-4,-4l-4,-4l-5,-2l-5,-1l-6,1l-5,2l-4,4l-4,4l-2,5l0,6z"/>
  <path id="svg_8" fill="#fff" d="m332,366l0,422l0,5l2,5l4,4l4,4l5,2l5,0l6,0l5,-2l4,-4l3,-4l2,-5l1,-5l0,-422l-1,-6l-2,-5l-3,-4l-4,-3l-5,-2l-6,-1l-5,1l-5,2l-4,3l-4,4l-2,5l0,6z"/>
  <path id="svg_9" fill="#fff" d="m431,392l0,422l0,5l3,5l3,4l4,4l5,2l5,0l6,0l5,-2l4,-4l4,-4l2,-5l1,-5l0,-422l-1,-5l-2,-5l-4,-5l-4,-3l-5,-2l-6,-1l-5,1l-5,2l-4,3l-3,5l-3,5l0,5z"/>
  <path id="svg_10" fill="#fff" d="m538,393l0,426l1,5l2,5l3,5l5,3l4,2l6,1l6,-1l5,-2l4,-3l3,-5l2,-5l1,-5l0,-426l-1,-5l-2,-5l-3,-5l-4,-3l-5,-2l-6,-1l-6,1l-4,2l-5,3l-3,5l-2,5l-1,5z"/>
  <path id="svg_11" fill="#fff" d="m652,387l0,401l1,6l2,5l3,4l4,4l5,2l6,0l5,0l5,-2l4,-4l4,-4l2,-5l1,-6l0,-401l-1,-6l-2,-5l-4,-4l-4,-3l-5,-2l-5,-1l-6,1l-5,2l-4,3l-3,4l-2,5l-1,6z"/>
  <path id="svg_12" fill="#fff" d="m756,372l0,399l1,6l2,5l3,4l4,3l5,2l6,1l6,-1l5,-2l4,-3l3,-4l2,-5l1,-6l0,-399l-1,-5l-2,-5l-3,-5l-4,-3l-5,-2l-6,-1l-6,1l-5,2l-4,3l-3,5l-2,5l-1,5z"/>
  <path id="svg_13" fill="#fff" d="m627,161l-1,-5l0,-5l-1,-5l-1,-5l-1,-5l-2,-5l-2,-5l-3,-4l-2,-5l-3,-4l-3,-5l-4,-4l-3,-4l-4,-3l-4,-3l-4,-3l-4,-3l-4,-3l-4,-2l-5,-3l-4,-2l-5,-1l-5,-2l-5,-1l-4,-2l-6,-1l-5,-1l-5,0l-5,-1l-5,0l-5,0l-5,1l-5,0l-4,1l-5,1l-4,1l-5,1l-4,2l-5,1l-4,2l-4,1l-4,2l-3,3l-4,2l-4,2l-4,3l-3,3l-3,3l-3,3l-3,3l-3,3l-2,3l-3,4l-2,3l-2,4l-2,4l-2,3l-2,4l-1,4l-1,4l-1,4l-1,4l0,5l0,4l-1,4l1,6l2,5l3,4l4,3l6,2l5,1l6,-1l4,-2l5,-3l3,-4l2,-5l1,-6l1,-7l1,-6l3,-6l2,-5l4,-4l3,-3l3,-4l4,-3l5,-2l5,-3l4,-2l5,-2l5,-1l6,-1l5,-1l6,0l5,0l6,1l5,1l5,1l6,2l4,2l5,3l4,2l4,3l4,4l3,3l3,4l3,5l2,6l2,6l1,7l0,6l3,5l3,4l4,3l5,2l5,1l6,-1l5,-2l4,-3l4,-4l2,-5l1,-6z"/>
  <path id="svg_14" fill="#fff" d="m244,308l1,-107l0,-6l-2,-5l-4,-4l-3,-3l-5,-3l-6,0l-6,0l-5,2l-4,3l-3,5l-2,5l-1,5l-1,107l0,6l2,5l4,4l4,3l5,3l5,0l6,0l5,-2l4,-4l3,-4l2,-4l1,-6z"/>
  <path id="svg_15" fill="#fff" d="m832,316l0,-101l-1,-6l-2,-5l-3,-4l-4,-3l-5,-2l-6,-1l-5,1l-5,2l-5,3l-3,4l-2,5l-1,6l0,101l1,6l2,5l3,4l5,3l5,2l5,1l6,-1l5,-2l4,-3l3,-4l2,-5l1,-6z"/>
 </g>
</svg>